<?xml version="1.0" standalone="no"?>
<!DOCTYPE svg PUBLIC "-//W3C//DTD SVG 20010904//EN"
 "http://www.w3.org/TR/2001/REC-SVG-20010904/DTD/svg10.dtd">
<svg version="1.0" xmlns="http://www.w3.org/2000/svg"
 width="1024.000000pt" height="1024.000000pt" viewBox="0 0 1024.000000 1024.000000"
 preserveAspectRatio="xMidYMid meet">
<metadata>
Created by potrace 1.11, written by Peter Selinger 2001-2013
</metadata>
<g transform="translate(0.000000,1024.000000) scale(0.100000,-0.100000)"
fill="#000000" stroke="none">
<path d="M4078 8989 c-442 -35 -811 -217 -1149 -566 -351 -362 -457 -716 -309
-1028 113 -238 394 -440 730 -525 123 -31 277 -50 423 -50 l127 0 0 -695 c0
-673 1 -695 19 -695 17 0 17 -5 -10 -85 -59 -174 -73 -271 -73 -490 0 -169 4
-216 22 -302 64 -297 186 -532 378 -733 77 -80 194 -174 278 -225 15 -9 11
-22 -35 -125 -204 -455 -343 -1057 -412 -1793 l-12 -127 -1005 718 -1005 718
-2 619 c-3 618 -3 620 -24 638 -19 16 -57 17 -455 17 -421 0 -435 -1 -454 -20
-20 -20 -20 -33 -20 -838 0 -724 2 -820 16 -840 l15 -22 443 0 c416 0 444 1
459 18 13 15 17 39 17 111 0 51 4 91 9 89 4 -1 454 -322 999 -711 l990 -709
-5 -371 c-5 -336 5 -708 24 -904 l6 -63 1052 0 1052 0 7 78 c24 291 33 884 18
1165 -6 106 -5 120 10 128 9 5 536 373 1170 817 634 444 1174 822 1199 839
l46 32 288 -485 c159 -266 292 -484 296 -484 4 0 17 8 29 18 l23 18 -278 493
c-254 450 -277 495 -266 517 26 59 -5 120 -69 133 -60 12 -84 70 -250 601 -95
303 -112 355 -148 425 -111 222 -283 395 -410 412 -28 4 -46 -1 -72 -19 -44
-30 -59 -72 -59 -169 -2 -173 102 -420 247 -591 31 -37 154 -180 272 -318 193
-226 304 -372 297 -392 -3 -12 -2342 -1648 -2344 -1640 -1 4 -9 81 -18 172
-66 679 -207 1281 -403 1717 l-50 112 86 57 c112 74 290 252 364 364 112 170
185 345 230 553 32 147 32 456 0 603 -18 85 -53 204 -77 266 -5 13 -2 15 14
11 l21 -5 0 698 0 699 148 1 c162 1 259 13 402 50 274 71 492 200 632 373 129
160 183 339 158 522 -31 222 -160 449 -385 674 -347 346 -685 508 -1145 546
-274 23 -629 -28 -929 -133 l-95 -33 -125 42 c-303 100 -642 145 -923 122z
m337 -73 c209 -15 485 -79 681 -157 27 -11 40 -8 110 19 141 54 415 118 584
137 89 10 389 7 470 -5 267 -38 523 -140 721 -288 320 -239 541 -516 610 -767
26 -96 28 -239 4 -322 -93 -318 -435 -557 -895 -623 -66 -10 -375 -15 -411 -8
-12 3 -14 -111 -17 -697 l-2 -701 -1150 -3 -1150 -3 0 699 0 698 -202 0 c-173
1 -219 4 -312 24 -416 88 -701 294 -798 578 -25 70 -29 100 -30 181 0 125 22
209 87 337 87 172 237 351 428 511 263 221 508 333 832 378 158 23 261 25 440
12z m210 -3971 c16 -15 25 -36 25 -55 0 -19 -9 -40 -25 -55 -15 -16 -36 -25
-55 -25 -19 0 -40 9 -55 25 -16 15 -25 36 -25 55 0 19 9 40 25 55 15 16 36 25
55 25 19 0 40 -9 55 -25z m1050 0 c50 -49 15 -135 -55 -135 -41 0 -80 39 -80
80 0 41 39 80 80 80 19 0 40 -9 55 -25z m-3745 -785 c20 -20 20 -33 20 -643 0
-547 -2 -625 -16 -645 l-15 -22 -345 0 c-219 0 -352 4 -365 10 -18 10 -19 28
-19 650 l0 639 22 15 c19 14 71 16 360 16 325 0 339 -1 358 -20z m2652 -47
c129 -160 309 -251 508 -258 220 -8 403 76 553 253 32 38 47 41 47 10 0 -35
-151 -176 -235 -220 -119 -62 -203 -82 -335 -82 -76 0 -137 6 -180 17 -142 38
-290 129 -365 225 -51 66 -44 118 7 55z m-2949 -1324 c54 -42 54 -146 0 -189
-47 -37 -126 -22 -156 30 -33 55 -13 144 37 169 36 17 91 13 119 -10z"/>
<path d="M1519 2777 c-46 -35 -53 -111 -13 -151 47 -46 118 -30 144 33 15 38
7 75 -25 107 -27 26 -79 32 -106 11z"/>
</g>
</svg>
