<?xml version="1.0" standalone="no"?>
<!DOCTYPE svg PUBLIC "-//W3C//DTD SVG 20010904//EN"
 "http://www.w3.org/TR/2001/REC-SVG-20010904/DTD/svg10.dtd">
<svg version="1.0" xmlns="http://www.w3.org/2000/svg"
 width="1024.000000pt" height="1024.000000pt" viewBox="0 0 1024.000000 1024.000000"
 preserveAspectRatio="xMidYMid meet">
<metadata>
Created by potrace 1.14, written by Peter Selinger 2001-2017
</metadata>
<g transform="translate(0.000000,1024.000000) scale(0.100000,-0.100000)"
fill="#000000" stroke="none">
<path d="M3890 9201 c-19 -5 -66 -14 -105 -21 -77 -14 -242 -71 -349 -120
-165 -76 -407 -272 -538 -437 -54 -68 -83 -83 -162 -83 -90 0 -278 -52 -434
-120 -126 -54 -142 -62 -142 -72 0 -4 -5 -8 -11 -8 -7 0 -50 -26 -98 -57 -119
-80 -323 -284 -393 -393 -58 -91 -128 -229 -148 -295 -7 -22 -16 -44 -20 -50
-4 -5 -13 -39 -19 -75 -7 -36 -17 -87 -22 -113 -15 -78 -11 -410 6 -507 17
-92 22 -114 35 -145 4 -11 20 -56 36 -100 83 -244 248 -467 466 -634 112 -85
303 -184 426 -221 58 -17 208 -50 228 -50 2 0 4 -255 4 -566 l0 -567 85 5 85
4 0 -78 c0 -74 -1 -78 -22 -78 -13 0 -49 -11 -81 -24 -220 -91 -366 -264 -433
-513 -37 -139 -40 -336 -5 -473 67 -267 220 -474 426 -576 122 -61 177 -74
336 -81 l136 -6 32 -66 c107 -218 343 -503 556 -671 201 -159 375 -257 605
-341 212 -77 377 -113 608 -129 397 -29 794 50 1152 230 429 215 793 588 929
951 9 26 11 26 143 32 170 7 222 19 333 72 135 66 224 148 306 284 198 327
183 798 -34 1078 -48 63 -72 85 -145 138 -56 40 -189 105 -214 105 -16 0 -18
10 -18 70 l0 70 80 0 80 0 2 562 3 562 30 7 c17 4 75 17 130 29 85 18 204 65
290 113 11 6 40 22 65 36 138 77 334 250 406 360 79 119 99 154 143 246 54
112 109 276 123 369 5 33 12 147 15 252 4 156 2 207 -12 275 -32 157 -115 380
-170 454 -12 17 -30 46 -40 65 -34 66 -139 188 -234 273 -185 165 -459 307
-671 347 -129 25 -217 40 -240 40 -18 1 -38 17 -70 56 -50 61 -156 172 -210
219 -207 181 -524 332 -770 365 -100 14 -411 9 -515 -9 -85 -14 -283 -80 -368
-123 -116 -58 -234 -134 -325 -210 -18 -16 -40 -28 -48 -28 -8 0 -40 19 -69
43 -89 70 -256 176 -279 177 -5 0 -36 13 -70 30 -111 54 -229 90 -381 115 -94
16 -371 19 -435 6z m376 -366 c179 -31 323 -93 474 -203 137 -100 242 -221
357 -411 l21 -34 22 44 c41 80 133 203 210 280 268 265 621 381 990 324 241
-36 452 -146 635 -330 215 -216 343 -493 362 -782 l6 -94 151 3 151 3 -1 130
c-1 95 -8 156 -24 225 -12 52 -24 105 -27 118 -7 28 9 29 103 4 276 -74 520
-276 629 -522 25 -56 30 -80 33 -180 5 -139 -6 -195 -64 -317 -45 -94 -125
-194 -178 -223 -15 -7 -36 -33 -48 -57 -42 -84 -169 -205 -262 -250 -32 -15
-34 -18 -18 -30 15 -13 15 -13 -5 -3 -17 8 -37 7 -80 -4 -32 -8 -94 -18 -138
-22 -72 -5 -90 -3 -172 24 -92 30 -209 88 -233 117 -17 20 -40 19 -41 -2 0
-10 0 -64 1 -121 l1 -103 -43 22 c-24 12 -50 27 -58 34 -21 17 -186 102 -292
149 -49 22 -88 43 -88 47 0 4 6 14 13 21 8 7 26 34 42 58 15 25 31 47 34 50 3
3 15 23 26 45 11 22 32 56 46 75 15 19 30 46 34 60 4 14 23 62 41 106 106 257
138 384 149 581 7 120 13 118 -57 23 -45 -61 -139 -154 -224 -222 -70 -56 -70
-56 -83 -124 -13 -75 -79 -236 -92 -228 -5 3 -6 -1 -4 -9 11 -28 -192 -347
-220 -347 -8 0 -37 9 -65 20 -80 32 -366 98 -544 125 -513 81 -1062 53 -1566
-78 -189 -49 -209 -51 -232 -30 -24 21 -108 126 -161 200 -55 78 -120 210
-111 225 4 7 3 10 -1 5 -11 -9 -50 86 -60 142 -6 34 -15 47 -58 78 -113 81
-257 222 -315 309 -11 16 -12 4 -7 -71 8 -117 24 -189 78 -360 48 -151 105
-290 151 -370 38 -66 112 -181 132 -203 35 -40 66 -83 63 -87 -2 -2 -53 -28
-114 -58 -137 -68 -221 -113 -254 -136 -14 -10 -45 -28 -69 -40 l-43 -22 3
140 c3 155 7 150 -67 91 -94 -75 -237 -130 -361 -137 -80 -5 -104 -2 -185 21
-52 15 -111 38 -132 52 -21 14 -42 22 -48 19 -5 -4 -8 -2 -7 3 2 5 -23 33 -56
61 -69 61 -146 149 -146 168 0 7 -15 25 -32 40 -166 142 -247 287 -264 474
-31 332 315 701 729 778 43 8 48 7 44 -8 -46 -161 -50 -182 -54 -328 l-5 -153
151 0 151 0 0 48 c1 197 94 464 226 649 169 235 388 395 653 478 145 45 341
57 497 30z m4038 -1853 c3 -5 -1 -9 -9 -9 -8 0 -12 4 -9 9 3 4 7 8 9 8 2 0 6
-4 9 -8z m73 -7 c0 -8 -4 -12 -9 -9 -5 3 -6 10 -3 15 9 13 12 11 12 -6z m-130
-80 c0 -8 -4 -12 -9 -9 -5 3 -6 10 -3 15 9 13 12 11 12 -6z m67 -6 c-3 -5 -10
-7 -15 -3 -5 3 -7 10 -3 15 3 5 10 7 15 3 5 -3 7 -10 3 -15z m-6364 -71 c0 -6
-6 -5 -15 2 -8 7 -15 14 -15 16 0 2 7 1 15 -2 8 -4 15 -11 15 -16z m6424 1
c-3 -5 -10 -7 -15 -3 -5 3 -7 10 -3 15 3 5 10 7 15 3 5 -3 7 -10 3 -15z
m-6509 2 c-3 -5 -1 -12 5 -16 12 -8 13 -25 1 -25 -10 0 -21 36 -13 44 9 9 14
7 7 -3z m6449 1 c3 -5 -1 -9 -9 -9 -8 0 -12 4 -9 9 3 4 7 8 9 8 2 0 6 -4 9 -8z
m-6389 -12 c3 -6 -1 -7 -9 -4 -18 7 -21 14 -7 14 6 0 13 -4 16 -10z m119 -73
c-9 -5 -18 -6 -21 -3 -4 3 0 6 8 6 11 0 11 2 -1 10 -22 14 -33 12 -27 -5 4 -8
2 -17 -3 -20 -6 -4 -10 -11 -10 -16 0 -6 4 -8 9 -5 5 3 11 -2 14 -13 3 -13 13
-17 36 -16 17 1 31 -2 31 -7 0 -4 -5 -8 -12 -8 -6 0 -8 -3 -4 -7 4 -5 24 -8
44 -8 19 0 37 -6 40 -13 2 -8 -3 -10 -15 -6 -15 5 -15 4 -3 -5 8 -5 11 -13 7
-17 -3 -4 -13 -1 -22 6 -8 7 -15 8 -15 4 0 -5 9 -15 19 -21 17 -11 21 -9 26 7
4 11 11 20 17 20 5 0 8 -6 5 -13 -4 -10 2 -13 19 -9 13 2 21 8 18 13 -3 5 -1
9 5 9 19 0 29 -32 17 -61 -7 -21 -7 -32 1 -40 8 -8 13 -8 17 0 4 6 2 11 -3 11
-17 0 -13 27 4 34 8 3 15 1 15 -4 0 -6 -6 -10 -12 -11 -10 0 -10 -2 0 -6 6 -2
12 -12 12 -20 0 -9 6 -13 15 -9 12 4 14 0 9 -18 -3 -15 1 -27 13 -36 15 -12
16 -12 6 0 -7 8 -13 21 -13 30 1 12 3 12 14 -3 8 -10 20 -15 30 -11 18 7 22
24 6 24 -5 0 -10 -5 -10 -11 0 -5 -4 -7 -10 -4 -5 3 -10 13 -10 20 0 11 6 12
24 5 17 -6 26 -5 29 3 3 7 8 0 12 -15 4 -14 16 -28 27 -31 11 -3 17 -10 13
-16 -3 -7 2 -11 14 -11 26 0 27 8 4 27 -17 13 -16 13 2 4 34 -18 52 -35 59
-59 7 -22 -2 -29 -20 -14 -5 4 0 -2 11 -14 11 -12 27 -19 35 -15 12 4 12 6 -3
9 -9 2 -15 8 -11 13 3 5 9 7 13 4 5 -2 26 -7 47 -9 32 -4 36 -3 23 7 -15 11
-15 15 -2 32 15 19 15 19 9 1 -4 -12 -1 -23 6 -28 22 -13 31 -9 17 9 -13 15
-12 15 16 1 17 -8 37 -13 45 -10 8 2 12 2 8 -2 -3 -4 -14 -9 -25 -10 -12 -3
-17 -11 -15 -27 4 -33 17 -43 39 -30 16 11 16 11 -4 6 -19 -5 -23 -2 -23 15 0
17 4 20 23 15 17 -5 19 -4 7 4 -12 9 -11 11 6 11 25 0 39 -27 25 -44 -6 -8 -6
-17 1 -26 8 -12 9 -12 4 3 -3 9 0 17 5 17 7 0 9 11 7 25 -5 21 -3 23 9 13 12
-10 18 -8 30 7 14 18 15 18 9 2 -8 -25 3 -44 16 -26 7 10 8 8 3 -7 -3 -13 -1
-24 7 -27 8 -2 14 -18 16 -33 1 -16 9 -34 17 -40 11 -9 15 -33 15 -103 l0 -92
-32 5 c-18 3 -55 8 -83 11 -218 26 -468 149 -624 306 -74 74 -146 167 -137
176 2 3 -7 16 -21 29 -15 14 -22 28 -17 36 4 7 3 10 -1 5 -5 -4 -19 18 -33 49
-22 53 -22 58 -6 73 15 15 16 14 10 -17 -5 -30 -4 -32 10 -17 9 9 14 25 11 35
-5 21 9 28 15 9 3 -8 10 -8 25 2 16 10 19 17 12 26 -6 7 7 2 29 -10 32 -17 38
-24 26 -30z m6256 -9 c0 -6 -6 -5 -15 2 -8 7 -15 14 -15 16 0 2 7 1 15 -2 8
-4 15 -11 15 -16z m-24 -25 c-7 -7 -26 7 -26 19 0 6 6 6 15 -2 9 -7 13 -15 11
-17z m38 -4 c-3 -6 -1 -15 6 -19 9 -5 9 -9 1 -14 -6 -4 -11 -3 -11 3 0 6 -7 8
-15 5 -8 -4 -12 -10 -9 -15 3 -5 0 -9 -5 -9 -6 0 -11 -6 -11 -14 0 -8 -6 -17
-12 -19 -8 -3 -7 -6 4 -6 20 -1 35 -21 16 -21 -8 0 -22 6 -32 13 -16 12 -15
16 18 51 20 20 36 42 36 47 0 5 5 9 11 9 5 0 7 -5 3 -11z m-14 -73 c0 -3 -4
-8 -10 -11 -5 -3 -10 -1 -10 4 0 6 5 11 10 11 6 0 10 -2 10 -4z m-109 -47 c19
-9 20 -8 14 10 -3 12 -3 21 0 21 10 0 65 -34 65 -40 -1 -23 -50 -52 -50 -29 0
6 -4 7 -10 4 -5 -3 -10 1 -10 9 0 9 -2 16 -4 16 -2 0 -11 3 -20 6 -11 4 -16 1
-16 -11 0 -9 5 -13 10 -10 6 3 10 2 10 -3 0 -5 13 -15 29 -22 27 -11 29 -14
19 -36 -10 -22 -20 -28 -40 -25 -4 0 -5 -6 -2 -13 3 -9 -25 -46 -73 -94 -69
-70 -101 -94 -218 -168 -60 -37 -199 -93 -268 -109 -101 -21 -217 -33 -223
-23 -3 5 -3 91 2 191 4 100 9 176 11 169 3 -6 10 -9 16 -5 7 4 6 -1 -2 -10
-11 -14 -11 -17 0 -18 10 0 11 -2 2 -6 -7 -2 -13 -17 -13 -33 0 -24 4 -28 23
-26 38 4 48 15 37 36 -12 22 -3 50 15 50 8 0 16 8 18 18 4 16 5 16 6 0 0 -10
-8 -25 -18 -35 -17 -16 -18 -19 -3 -33 14 -13 15 -12 9 3 -9 24 9 21 26 -3 8
-12 18 -20 23 -19 21 4 35 -2 29 -11 -9 -15 7 -12 30 6 19 14 19 16 3 28 -10
7 -18 17 -18 21 0 5 14 -4 30 -20 17 -16 30 -23 30 -17 0 7 -5 12 -11 12 -6 0
-9 6 -6 14 3 8 1 17 -6 19 -7 3 -2 4 10 4 14 -1 22 -7 20 -16 -1 -7 4 -16 11
-18 7 -3 12 5 12 22 0 24 1 25 16 11 8 -9 20 -14 25 -11 5 4 9 2 9 -4 0 -5 -5
-12 -10 -14 -6 -3 -5 -4 2 -3 7 1 14 15 15 31 1 16 9 33 18 37 8 5 13 14 9 19
-10 17 44 2 76 -21 23 -17 30 -18 30 -7 0 8 -7 18 -16 21 -8 3 -13 10 -10 14
3 5 -4 8 -16 8 -12 -1 -23 4 -24 9 -2 6 7 10 21 10 14 0 25 -2 25 -5 0 -3 10
-6 22 -7 11 -1 25 -8 29 -15 7 -10 9 -8 9 5 0 10 5 15 10 12 6 -3 10 0 10 7 0
8 5 6 11 -5 6 -9 15 -15 20 -12 5 4 7 11 4 16 -10 15 7 10 27 -8 17 -15 18
-15 18 0 0 10 -4 17 -9 17 -5 0 -11 7 -15 15 -8 21 6 19 32 -5 27 -25 39 -25
47 0 7 22 -10 60 -27 60 -6 0 -8 3 -5 6 4 4 13 1 22 -6 12 -10 15 -10 15 2 0
8 -5 19 -12 26 -9 9 -9 12 -1 12 17 0 27 -20 27 -55 1 -26 5 -30 27 -30 18 -1
25 3 22 12 -6 17 -20 17 -26 1 -2 -7 -7 -10 -11 -7 -3 3 -3 17 2 29 6 15 11
19 16 12 12 -20 29 -14 23 8 -3 12 -1 18 5 14 6 -4 8 2 4 17 -6 20 -5 21 4 7
6 -10 20 -23 31 -29z m-66 21 c8 -13 -5 -13 -25 0 -13 8 -13 10 2 10 9 0 20
-4 23 -10z m-92 -53 c4 3 7 -2 7 -11 0 -12 5 -16 15 -12 9 3 15 0 15 -9 0 -21
-16 -19 -45 7 -25 22 -36 50 -12 29 8 -6 17 -8 20 -4z m-3290 -27 c59 -40 87
-94 87 -165 0 -41 -6 -70 -19 -91 -21 -34 -80 -84 -99 -84 -9 0 -12 -53 -12
-192 l1 -193 89 -95 c118 -126 119 -127 85 -184 -15 -25 -31 -49 -37 -52 -5
-4 -67 52 -137 123 -109 110 -129 134 -134 168 -4 22 -7 128 -7 235 l-1 195
-32 20 c-69 43 -96 157 -58 240 20 44 40 65 86 90 45 24 142 16 188 -15z m954
11 c107 -49 138 -211 56 -301 -19 -22 -43 -42 -54 -45 -18 -6 -19 -18 -19
-242 l0 -236 -122 -123 c-68 -68 -128 -124 -133 -124 -12 0 -85 84 -85 97 0 4
47 58 105 118 l104 110 1 190 0 190 -37 20 c-21 11 -51 40 -68 63 -26 38 -30
52 -30 112 0 60 4 74 30 112 17 23 46 51 65 60 47 23 134 22 187 -1z m-3320 3
c-3 -3 -12 -4 -19 -1 -8 3 -5 6 6 6 11 1 17 -2 13 -5z m5579 -9 c9 -8 11 -15
6 -15 -5 0 -15 7 -22 15 -7 8 -9 15 -6 15 4 0 14 -7 22 -15z m-5496 -38 c0 -5
-7 -2 -15 7 -8 8 -15 20 -15 27 0 14 29 -20 30 -34z m5404 34 c4 -5 -3 -7 -14
-4 -23 6 -26 13 -6 13 8 0 17 -4 20 -9z m33 -6 c0 -8 -4 -15 -9 -15 -10 0 -11
14 -1 23 9 10 10 9 10 -8z m-460 -57 c-3 -8 -6 -5 -6 6 -1 11 2 17 5 13 3 -3
4 -12 1 -19z m-2256 -8 c8 -5 26 -29 39 -53 27 -52 23 -81 -19 -126 -26 -27
-35 -31 -83 -31 -57 0 -74 9 -102 50 -35 52 -6 147 52 169 28 10 84 6 113 -9z
m2376 4 c-3 -3 -12 -4 -19 -1 -8 3 -5 6 6 6 11 1 17 -2 13 -5z m-5039 -29 c-3
-3 -9 2 -12 12 -6 14 -5 15 5 6 7 -7 10 -15 7 -18z m5082 13 c0 -4 -4 -8 -9
-8 -6 0 -12 4 -15 8 -3 5 1 9 9 9 8 0 15 -4 15 -9z m-110 -8 c0 -5 -2 -10 -4
-10 -3 0 -8 5 -11 10 -3 6 -1 10 4 10 6 0 11 -4 11 -10z m168 -15 c-3 -3 -9 2
-12 12 -6 14 -5 15 5 6 7 -7 10 -15 7 -18z m-5091 -4 c-1 -12 -7 -16 -23 -13
-27 5 -22 27 6 29 12 1 18 -4 17 -16z m5164 -4 c-10 -9 -11 -8 -5 6 3 10 9 15
12 12 3 -3 0 -11 -7 -18z m-191 -7 c0 -5 -5 -10 -11 -10 -5 0 -7 5 -4 10 3 6
8 10 11 10 2 0 4 -4 4 -10z m52 -13 c-3 -10 1 -23 9 -27 7 -5 10 -12 7 -16
-10 -10 -33 18 -34 42 -1 11 4 21 11 21 7 0 10 -8 7 -20z m-133 -52 c-6 -6
-13 -5 -19 5 -6 9 -5 17 3 22 15 9 29 -14 16 -27z m-3289 -127 l150 -153 0
-205 0 -206 185 -188 185 -187 0 -69 c0 -80 -8 -86 -91 -75 l-49 7 0 41 c-1
41 -7 48 -185 231 l-185 189 0 209 0 209 -120 116 c-66 64 -122 125 -126 135
-6 21 50 98 72 98 8 0 81 -69 164 -152z m2109 106 l42 -45 -37 -42 c-21 -23
-75 -80 -121 -127 l-83 -85 0 -207 0 -207 -54 -58 c-30 -32 -113 -118 -185
-191 l-131 -133 0 -50 0 -50 -67 3 -68 3 -3 74 -3 74 174 176 c96 97 180 187
187 200 9 18 11 69 5 206 -5 138 -4 188 5 206 13 25 280 298 291 299 4 0 25
-20 48 -46z m-2854 -167 c21 -12 53 -42 69 -65 26 -37 31 -52 31 -106 0 -108
-59 -172 -170 -183 -131 -14 -221 92 -195 228 23 122 158 187 265 126z m3598
9 c109 -47 150 -180 87 -280 -40 -63 -100 -91 -178 -83 -101 11 -162 78 -162
180 0 68 9 94 50 141 47 53 135 71 203 42z m-1791 -95 c107 -73 119 -244 22
-320 -14 -11 -34 -23 -45 -26 -18 -6 -19 -19 -19 -296 l0 -289 -70 0 -71 0 1
288 1 287 -36 23 c-25 16 -44 40 -61 78 -29 67 -30 88 -3 159 20 55 56 92 109
114 42 18 134 8 172 -18z m-1363 -100 c63 -44 74 -123 26 -187 -72 -94 -225
-36 -225 86 0 100 116 159 199 101z m2604 15 c53 -22 87 -70 87 -123 0 -40 -5
-50 -40 -85 -39 -39 -42 -40 -97 -36 -47 4 -61 10 -84 36 -15 17 -31 46 -34
65 -9 48 24 111 73 136 45 24 53 25 95 7z m-2986 -367 c44 -21 93 -79 93 -110
0 -22 15 -24 135 -27 l100 -3 123 -125 123 -126 -3 -47 -3 -46 -72 -3 c-73 -3
-73 -3 -73 23 0 19 -22 49 -82 110 l-83 85 -82 1 -83 2 -43 -40 c-24 -22 -61
-46 -82 -53 -92 -30 -195 18 -228 106 -66 173 98 332 260 253z m3455 -15 c58
-40 80 -82 81 -152 2 -73 -24 -127 -80 -166 -80 -56 -200 -40 -254 33 -22 31
-24 31 -110 31 l-87 0 -71 -72 c-41 -42 -75 -85 -78 -100 -8 -41 -25 -49 -90
-46 l-58 3 -3 55 -3 55 118 118 119 117 112 7 112 6 21 44 c19 39 60 76 109
96 8 4 39 5 68 3 39 -2 64 -10 94 -32z m-2661 -315 c38 -41 38 -81 0 -120 -45
-45 -120 -37 -155 16 -17 26 -17 29 0 67 34 76 103 92 155 37z m2844 -314 l0
-70 -2005 0 -2005 0 -3 73 -3 72 2008 -2 2008 -3 0 -70z m-3710 -358 c47 -26
91 -88 100 -138 14 -79 -34 -166 -110 -200 -91 -42 -205 -7 -244 74 -38 78
-24 185 30 237 57 54 155 66 224 27z m3591 7 c74 -35 114 -101 114 -188 -1
-174 -249 -243 -346 -97 -61 93 -29 231 66 279 52 26 118 29 166 6z m-3030
-93 c23 -10 54 -35 70 -55 l29 -36 491 0 c439 0 493 -2 498 -16 3 -9 6 -353 6
-765 l0 -749 -224 0 -225 0 -295 295 -295 295 -237 0 -236 0 6 -23 c7 -30 -11
-94 -37 -131 -59 -84 -208 -86 -282 -5 -62 69 -66 150 -12 230 37 55 81 79
148 79 50 0 63 -4 101 -33 l44 -34 44 39 45 38 226 0 226 0 199 -192 c110
-106 248 -241 309 -300 l110 -108 122 0 123 0 0 620 0 620 -424 0 -424 0 -11
-27 c-42 -100 -154 -141 -257 -94 -82 37 -129 138 -104 226 33 118 155 176
266 126z m2507 -6 c134 -64 123 -282 -18 -346 -98 -45 -197 -11 -246 84 l-19
37 -340 0 -340 0 0 -624 c0 -560 2 -624 16 -630 9 -3 22 -3 29 1 7 5 116 109
242 233 125 124 268 260 317 303 l88 77 218 0 217 0 43 -31 c28 -21 48 -29 55
-23 50 38 71 47 110 51 65 8 111 -4 151 -39 49 -43 67 -83 67 -148 0 -111 -80
-190 -192 -190 -81 1 -164 67 -177 141 -3 19 -7 44 -10 57 l-4 22 -229 0 -228
0 -35 -37 c-61 -65 -450 -447 -511 -501 l-58 -53 -122 3 -122 3 -3 744 c-2
682 -1 746 14 763 16 17 42 18 420 18 381 0 403 1 408 18 9 26 55 67 91 81 41
15 122 8 168 -14z m-3057 -390 c12 -8 37 -35 54 -60 l31 -45 294 0 c183 0 295
4 295 10 0 16 61 80 91 96 36 18 132 18 167 0 91 -48 135 -162 97 -254 -61
-144 -247 -165 -335 -37 l-31 45 -289 0 -289 0 -28 -42 c-36 -54 -82 -77 -153
-78 -120 -1 -195 75 -195 195 0 43 6 70 21 95 22 39 86 86 124 93 42 8 121 -2
146 -18z m2677 -2 c16 -8 41 -34 55 -58 l27 -44 277 -1 277 0 15 29 c46 88
164 122 257 75 73 -37 119 -141 98 -219 -33 -118 -137 -177 -248 -140 -46 15
-63 29 -122 103 -7 9 -75 12 -278 12 l-268 0 -33 -46 c-55 -76 -152 -104 -237
-69 -50 21 -72 42 -94 90 -53 115 14 257 133 285 41 9 104 2 141 -17z m-3223
-171 c50 -25 80 -74 80 -133 0 -27 -4 -49 -10 -49 -5 0 -6 -7 -3 -17 4 -11 3
-14 -5 -9 -8 4 -12 0 -12 -11 0 -28 -51 -53 -108 -53 -70 0 -97 13 -127 59
-79 127 53 280 185 213z m4595 2 c13 -6 14 -9 3 -16 -9 -7 -7 -8 8 -4 21 6 51
-18 73 -61 34 -66 -11 -166 -86 -192 -34 -12 -48 -13 -83 -2 -48 14 -96 61
-105 103 -14 61 25 162 55 143 6 -3 9 -1 8 6 -2 6 3 14 11 17 9 3 11 0 7 -9
-4 -8 -1 -6 6 4 13 17 70 23 103 11z m-2831 -218 c74 -31 103 -109 65 -176
-28 -50 -63 -70 -120 -70 -35 0 -48 6 -80 39 -32 32 -39 46 -39 77 0 52 29
103 71 126 40 22 59 22 103 4z m-825 -475 c38 -27 64 -85 57 -126 -20 -105
-149 -141 -225 -63 -42 43 -43 105 -5 156 47 61 116 74 173 33z m2759 8 c34
-17 49 -32 64 -67 31 -70 12 -124 -59 -161 -53 -27 -142 -2 -167 48 -36 69
-11 151 57 182 53 23 52 23 105 -2z m-2967 -396 c104 -104 200 -204 214 -224
24 -34 26 -42 23 -155 l-3 -119 -65 0 -65 0 -3 89 -3 89 -194 199 c-107 109
-195 206 -195 215 0 21 69 93 89 93 7 0 99 -84 202 -187z m3319 145 c22 -24
40 -49 40 -57 0 -8 -92 -106 -205 -217 l-205 -203 0 -86 0 -86 -67 3 -68 3 -3
120 -3 119 223 223 c123 123 229 223 236 223 7 0 31 -19 52 -42z m-2617 -68
c65 -41 87 -80 87 -156 0 -58 2 -64 35 -93 l36 -31 288 0 c232 0 291 -3 300
-14 8 -9 10 -125 9 -407 l-3 -394 -65 0 -65 0 -3 338 -2 337 -260 0 -259 0
-55 44 c-53 44 -56 45 -109 39 -76 -8 -122 3 -162 38 -85 75 -82 212 8 288 41
35 53 39 118 40 45 1 64 -5 102 -29z m1820 16 c102 -42 146 -186 84 -277 -42
-61 -70 -74 -164 -76 -80 -2 -88 -4 -117 -31 -52 -50 -64 -52 -245 -52 l-171
0 -2 -337 -3 -338 -65 0 -65 0 -3 392 c-2 346 0 393 14 407 13 14 47 16 222
16 203 0 208 1 227 23 14 16 20 38 21 82 2 81 31 133 98 179 44 30 115 35 169
12z m-1889 -689 c114 -88 94 -256 -36 -311 -107 -44 -233 25 -245 137 -7 58
11 113 51 156 42 44 60 51 132 48 49 -2 69 -8 98 -30z m1977 10 c65 -34 91
-84 87 -167 -4 -79 -31 -123 -92 -151 -126 -57 -266 28 -266 161 0 65 44 134
105 168 35 20 118 14 166 -11z m-1589 -136 c57 -63 29 -159 -52 -181 -124 -34
-198 95 -109 191 27 29 33 31 81 27 42 -4 57 -11 80 -37z m1160 10 c30 -26 33
-35 33 -84 0 -69 -27 -103 -90 -112 -64 -10 -111 14 -126 63 -26 89 22 162
107 162 34 0 51 -6 76 -29z"/>
<path d="M5090 7710 c-8 -15 -8 -20 2 -20 26 0 37 14 22 28 -11 10 -15 8 -24
-8z"/>
<path d="M5038 7548 c-2 -24 -1 -68 2 -98 6 -48 7 -43 9 43 1 102 -3 125 -11
55z"/>
<path d="M3660 7360 c0 -6 7 -10 15 -10 8 0 15 2 15 4 0 2 -7 6 -15 10 -8 3
-15 1 -15 -4z"/>
<path d="M3758 7316 c30 -14 57 -26 60 -26 15 0 -60 40 -85 46 -16 3 -4 -6 25
-20z"/>
<path d="M6380 7280 c-11 -8 -7 -9 15 -4 37 8 45 14 19 14 -10 0 -26 -5 -34
-10z"/>
<path d="M3878 7273 c7 -3 16 -2 19 1 4 3 -2 6 -13 5 -11 0 -14 -3 -6 -6z"/>
<path d="M6825 6939 c-9 -14 -2 -20 14 -10 8 6 9 11 3 15 -6 3 -14 1 -17 -5z"/>
<path d="M6870 6886 c0 -3 9 -10 20 -16 11 -6 20 -8 20 -6 0 3 -9 10 -20 16
-11 6 -20 8 -20 6z"/>
<path d="M6756 6821 c-3 -5 1 -11 9 -15 9 -3 15 0 15 9 0 16 -16 20 -24 6z"/>
<path d="M7000 6756 c0 -2 7 -7 16 -10 8 -3 12 -2 9 4 -6 10 -25 14 -25 6z"/>
<path d="M7070 6691 c0 -10 19 -25 25 -20 1 2 -3 10 -11 17 -8 7 -14 8 -14 3z"/>
<path d="M1950 6720 c0 -5 5 -10 10 -10 6 0 10 5 10 10 0 6 -4 10 -10 10 -5 0
-10 -4 -10 -10z"/>
<path d="M1926 6672 c-2 -4 -1 -14 4 -22 7 -11 9 -9 7 8 -1 24 -3 26 -11 14z"/>
<path d="M2000 6636 c0 -8 4 -17 9 -20 5 -4 7 3 4 14 -6 23 -13 26 -13 6z"/>
<path d="M2060 6610 c0 -5 7 -7 15 -4 8 4 15 8 15 10 0 2 -7 4 -15 4 -8 0 -15
-4 -15 -10z"/>
<path d="M2188 6576 c-20 -11 -28 -11 -32 -3 -3 9 -5 9 -5 0 -2 -29 52 -27 63
2 7 18 7 18 -26 1z"/>
<path d="M2352 6480 c-8 -14 -9 -20 -1 -20 6 0 9 -7 5 -15 -8 -22 2 -18 15 6
8 17 8 20 -1 14 -9 -5 -10 -1 -5 14 8 26 3 27 -13 1z"/>
<path d="M2447 6426 c-4 -10 -1 -13 9 -9 7 3 14 9 14 14 0 14 -17 10 -23 -5z"/>
<path d="M2756 6321 c-3 -5 1 -11 9 -15 8 -3 15 -1 15 4 0 13 -18 22 -24 11z"/>
<path d="M2795 6301 c-3 -5 0 -13 6 -17 7 -4 9 -3 5 4 -3 5 0 13 6 15 9 4 10
6 1 6 -6 1 -14 -3 -18 -8z"/>
<path d="M8150 6541 c0 -6 9 -15 20 -21 13 -7 20 -7 20 -1 0 6 -9 15 -20 21
-13 7 -20 7 -20 1z"/>
<path d="M8205 6500 c3 -5 8 -10 11 -10 2 0 4 5 4 10 0 6 -5 10 -11 10 -5 0
-7 -4 -4 -10z"/>
<path d="M7870 6461 c0 -13 29 -35 51 -38 10 -2 19 2 19 7 0 6 -9 10 -20 10
-11 0 -20 4 -20 9 0 5 -7 11 -15 15 -8 3 -15 2 -15 -3z"/>
<path d="M7951 6443 c12 -21 15 -21 31 -6 10 9 16 19 13 22 -4 3 -10 -1 -15
-9 -7 -12 -11 -12 -26 1 -16 13 -16 12 -3 -8z"/>
<path d="M7774 6426 c-3 -8 -4 -23 -1 -33 3 -12 5 -9 6 9 1 25 3 27 27 17 29
-10 40 -7 29 10 -9 16 -55 13 -61 -3z"/>
<path d="M7815 6396 c11 -8 24 -12 29 -8 5 3 1 9 -10 13 -31 12 -39 10 -19 -5z"/>
<path d="M7701 6363 c-1 -12 4 -25 9 -28 12 -7 12 2 0 30 -8 19 -9 19 -9 -2z"/>
<path d="M7670 6340 c0 -5 5 -10 11 -10 5 0 7 5 4 10 -3 6 -8 10 -11 10 -2 0
-4 -4 -4 -10z"/>
<path d="M7516 6319 c3 -5 12 -9 21 -9 19 0 9 13 -12 16 -8 1 -13 -2 -9 -7z"/>
<path d="M4597 6402 c-26 -28 -21 -67 10 -92 64 -50 141 32 83 90 -25 25 -72
26 -93 2z"/>
<path d="M5566 6409 c-26 -20 -34 -60 -18 -86 14 -22 61 -34 85 -22 29 16 37
28 37 61 0 27 -39 68 -65 68 -7 0 -24 -9 -39 -21z"/>
<path d="M3300 6018 c-27 -30 -25 -62 6 -87 33 -26 45 -26 74 -3 43 35 15 112
-41 112 -10 0 -27 -10 -39 -22z"/>
<path d="M6907 6022 c-38 -42 -8 -102 49 -102 38 0 54 16 54 55 0 57 -67 87
-103 47z"/>
<path d="M5085 5935 c-30 -29 -32 -55 -7 -85 13 -16 29 -23 51 -22 68 2 96 71
45 111 -35 27 -59 26 -89 -4z"/>
<path d="M3352 5477 c-29 -30 -28 -71 0 -91 68 -48 140 24 92 92 -20 29 -64
29 -92 -1z"/>
<path d="M6791 5474 c-25 -32 -26 -52 -5 -82 22 -32 76 -30 103 4 27 34 26 45
-4 78 -31 34 -67 34 -94 0z"/>
<path d="M3276 4478 c-9 -12 -16 -31 -16 -41 0 -24 44 -67 70 -67 28 0 60 35
60 65 0 57 -83 88 -114 43z"/>
<path d="M6882 4487 c-6 -6 -13 -24 -17 -39 -5 -21 -1 -33 19 -52 30 -31 66
-33 91 -6 24 27 24 79 0 96 -24 17 -79 18 -93 1z"/>
<path d="M3850 4390 c-41 -41 -11 -104 51 -102 41 1 59 18 59 57 0 59 -68 87
-110 45z"/>
<path d="M3337 3492 c-35 -38 -6 -92 49 -92 26 0 54 30 54 57 0 47 -71 71
-103 35z"/>
<path d="M6336 4388 c-22 -31 -20 -64 4 -88 28 -28 66 -25 95 6 30 32 30 31 5
72 -16 26 -26 32 -54 32 -25 0 -39 -7 -50 -22z"/>
<path d="M6847 3502 c-37 -40 -9 -102 46 -102 29 0 57 32 57 66 0 47 -71 72
-103 36z"/>
<path d="M3282 3994 c-31 -22 -29 -67 4 -93 34 -26 54 -26 82 -1 61 57 -17
142 -86 94z"/>
<path d="M4242 3994 c-15 -10 -22 -25 -22 -48 0 -64 70 -90 109 -39 24 30 20
58 -11 86 -25 21 -47 22 -76 1z"/>
<path d="M5951 3984 c-27 -34 -26 -55 2 -82 53 -50 127 -11 112 58 -12 55 -79
69 -114 24z"/>
<path d="M6877 3998 c-9 -7 -20 -27 -23 -44 -12 -64 68 -100 114 -51 12 13 22
33 22 45 0 49 -72 80 -113 50z"/>
<path d="M4166 2834 c-35 -34 -6 -104 43 -104 15 0 35 8 44 18 24 26 22 79 -2
92 -29 15 -67 12 -85 -6z"/>
<path d="M6010 2830 c-26 -26 -25 -52 3 -78 61 -58 146 19 87 78 -11 11 -31
20 -45 20 -14 0 -34 -9 -45 -20z"/>
<path d="M4097 2172 c-10 -10 -17 -28 -17 -40 0 -27 33 -62 58 -62 26 0 52 31
52 63 0 51 -59 76 -93 39z"/>
<path d="M6090 2163 c-26 -33 -23 -50 13 -77 26 -19 30 -19 55 -5 19 10 28 24
30 46 6 61 -59 85 -98 36z"/>
<path d="M2296 2787 c3 -10 9 -15 12 -12 3 3 0 11 -7 18 -10 9 -11 8 -5 -6z"/>
<path d="M2771 2474 c17 -39 87 -167 109 -199 15 -22 46 -69 70 -105 127 -190
355 -446 475 -535 22 -16 50 -39 63 -51 46 -44 257 -179 432 -276 104 -58 311
-138 465 -180 249 -68 326 -81 565 -99 239 -17 558 5 765 54 137 33 265 69
345 99 95 35 356 157 410 192 19 13 55 35 80 50 261 153 596 472 745 711 46
73 92 157 136 245 53 106 52 109 -32 91 -27 -6 -76 -11 -108 -11 -56 0 -58 -1
-74 -36 -53 -110 -215 -325 -350 -463 -204 -209 -487 -403 -767 -525 -185 -81
-508 -169 -689 -187 -162 -17 -572 -5 -691 20 -277 57 -492 132 -720 250 -385
199 -711 500 -928 858 l-53 88 -72 0 c-40 1 -96 5 -126 9 -31 5 -52 5 -50 0z"/>
</g>
</svg>
