<svg id="Layer_1" data-name="Layer 1" xmlns="http://www.w3.org/2000/svg" viewBox="0 0 1031 1309.7"><defs><style>.cls-1{fill:#80bebf;}.cls-1,.cls-2,.cls-3,.cls-4,.cls-5{stroke:#000;}.cls-1,.cls-2,.cls-3,.cls-4,.cls-5,.cls-8{stroke-linecap:round;}.cls-1,.cls-2,.cls-3,.cls-4,.cls-5,.cls-7,.cls-8{stroke-miterlimit:10;}.cls-1,.cls-3,.cls-4{stroke-width:7px;}.cls-2,.cls-7,.cls-8{fill:none;}.cls-2{stroke-width:18px;}.cls-4{fill:#fff;}.cls-6{fill:#e3e0d8;}.cls-7{stroke:#e9ecff;stroke-width:2px;}.cls-8{stroke:#fff;stroke-width:4px;}</style></defs><rect class="cls-1" x="3.5" y="3.5" width="1024" height="1024"/><line id="RightArm" class="cls-2" x1="608.97" y1="917.7" x2="855.97" y2="744.7"/><ellipse id="Body" class="cls-3" cx="504.47" cy="982.2" rx="105" ry="324"/><ellipse id="Head" class="cls-3" cx="504.97" cy="577.2" rx="125.5" ry="139"/><path id="Hat" class="cls-4" d="M620.18,512.26V372.45c62.36,6,116.18-21.41,130.54-60.48,22.07-60-58.38-116.21-65.27-121C608.32,137.85,512.52,176.28,502,180.7h0c-10.79-4.48-107.13-42.77-184.49,10.75-7.16,5-87.28,61.11-65.27,121,14.37,39.07,68.18,66.47,130.54,60.48V512.7Z" transform="translate(3.5 3.5)"/><g id="Spoon"><path d="M773.56,609.75,914.7,847l-5.62,3.26L767.94,613Zm5.63-3.26L914.7,847l-5.62,3.26L773.56,609.75Z" transform="translate(3.5 3.5)"/><path class="cls-5" d="M779,648c1.6,3.74,3.34,7.41,3.82,11.53a18.1,18.1,0,0,1,0,3.82l67.61,79.82-31.79-99.43a8.57,8.57,0,0,1-5.14-2.47,8.93,8.93,0,0,1-2.45-5.75c-.06-.18-.11-.36-.17-.53-.11-.33-.27-.66-.36-1,0,.13.06.23.09.34v0c.37.79.61,2.27,0,0-.28-.6-.6-1.18-.93-1.75a9.25,9.25,0,0,1-3.42-6.08l-29.4,17.74A23.66,23.66,0,0,1,779,648Z" transform="translate(3.5 3.5)"/><ellipse cx="791.63" cy="636.82" rx="22.72" ry="53.42" transform="translate(-204.22 457.23) rotate(-28.43)"/></g><line id="LeftArm" class="cls-2" x1="400.97" y1="920.7" x2="154.22" y2="744.36"/><rect x="102.5" y="637.15" width="94.33" height="171.35" rx="5"/><rect class="cls-6" x="111.78" y="645.16" width="75.78" height="132.28" rx="5"/><ellipse class="cls-7" cx="146.17" cy="789.7" rx="10.85" ry="10" transform="translate(-641.53 931.04) rotate(-89.4)"/><circle id="RightEye" class="cls-4" cx="449.97" cy="573.7" r="11.5"/><circle id="LeftEye" class="cls-4" cx="554.97" cy="573.7" r="11.5"/><path class="cls-8" d="M445,647.2c12.51,19.26,37,30.51,62,28.54,32.87-2.58,48.8-26.65,50-28.54" transform="translate(3.5 3.5)"/></svg>